<?xml version="1.0" encoding="UTF-8" standalone="no"?>
<svg
   id="Calque_1"
   data-name="Calque 1"
   width="391.10001"
   height="62.599998"
   viewBox="0 0 391.1 62.6"
   version="1.1"
   sodipodi:docname="arduboy.svg"
   inkscape:version="1.1 (c68e22c387, 2021-05-23)"
   xmlns:inkscape="http://www.inkscape.org/namespaces/inkscape"
   xmlns:sodipodi="http://sodipodi.sourceforge.net/DTD/sodipodi-0.dtd"
   xmlns="http://www.w3.org/2000/svg"
   xmlns:svg="http://www.w3.org/2000/svg">
  <sodipodi:namedview
     id="namedview68"
     pagecolor="#ffffff"
     bordercolor="#666666"
     borderopacity="1.0"
     inkscape:pageshadow="2"
     inkscape:pageopacity="0.0"
     inkscape:pagecheckerboard="true"
     showgrid="false"
     fit-margin-top="0"
     fit-margin-left="0"
     fit-margin-right="0"
     fit-margin-bottom="0"
     inkscape:zoom="2.0543196"
     inkscape:cx="229.0296"
     inkscape:cy="32.127426"
     inkscape:window-width="1920"
     inkscape:window-height="1138"
     inkscape:window-x="-8"
     inkscape:window-y="-8"
     inkscape:window-maximized="1"
     inkscape:current-layer="Calque_1" />
  <defs
     id="defs4">
    <style
       id="style2">
      .cls-1 {
        fill: #fff;
      }

      .cls-2 {
        fill: #f6f6f6;
      }

      .cls-3 {
        fill: #c6a235;
      }

      .cls-4 {
        fill: none;
        stroke: #c6a236;
        stroke-linecap: round;
        stroke-linejoin: round;
        stroke-width: 8px;
      }
    </style>
  </defs>
  <g
     id="g1157"
     transform="translate(4,4)">
    <g
       id="g28"
       style="stroke:#ffffff;stroke-width:16;stroke-linecap:round;stroke-linejoin:round;stroke-miterlimit:4;stroke-dasharray:none">
      <polyline
         class="cls-4"
         points="64.3 50.6 64.3 20.8 79.8 5.4 95.1 21.5 95.1 50.6"
         id="polyline6"
         style="stroke:#ffffff;stroke-width:16;stroke-linecap:round;stroke-linejoin:round;stroke-miterlimit:4;stroke-dasharray:none" />
      <polyline
         class="cls-4"
         points="111.5 50.6 111.5 5.4 134.5 5.4 141.4 12.6 141.4 28.7 133.9 36.3 112.7 36.3"
         id="polyline8"
         style="stroke:#ffffff;stroke-width:16;stroke-linecap:round;stroke-linejoin:round;stroke-miterlimit:4;stroke-dasharray:none" />
      <polygon
         class="cls-4"
         points="181.9,5.4 189.2,12.6 189.2,43.5 182.4,50.6 159.6,50.6 159.6,5.4 "
         id="polygon10"
         style="stroke:#ffffff;stroke-width:16;stroke-linecap:round;stroke-linejoin:round;stroke-miterlimit:4;stroke-dasharray:none" />
      <polyline
         class="cls-4"
         points="206.6 4.7 206.6 43.8 214.4 50.6 229 50.6 237.1 43 237.1 4.7"
         id="polyline12"
         style="stroke:#ffffff;stroke-width:16;stroke-linecap:round;stroke-linejoin:round;stroke-miterlimit:4;stroke-dasharray:none" />
      <polygon
         class="cls-4"
         points="276.2,28 284.1,34.8 284.1,43.7 277.1,50.6 254.7,50.6 254.7,4.7 277.1,4.7 284.1,11.6 284.1,18.6 "
         id="polygon14"
         style="stroke:#ffffff;stroke-width:16;stroke-linecap:round;stroke-linejoin:round;stroke-miterlimit:4;stroke-dasharray:none" />
      <line
         class="cls-4"
         x1="255.89999"
         y1="27.6"
         x2="276.20001"
         y2="28"
         id="line16"
         style="stroke:#ffffff;stroke-width:16;stroke-linecap:round;stroke-linejoin:round;stroke-miterlimit:4;stroke-dasharray:none" />
      <line
         class="cls-4"
         x1="142.89999"
         y1="50.599998"
         x2="128.89999"
         y2="36.299999"
         id="line18"
         style="stroke:#ffffff;stroke-width:16;stroke-linecap:round;stroke-linejoin:round;stroke-miterlimit:4;stroke-dasharray:none" />
      <line
         class="cls-4"
         x1="66.5"
         y1="28"
         x2="93"
         y2="28"
         id="line20"
         style="stroke:#ffffff;stroke-width:16;stroke-linecap:round;stroke-linejoin:round;stroke-miterlimit:4;stroke-dasharray:none" />
      <polygon
         class="cls-4"
         points="309.5,4.7 301.4,11.7 301.4,42.7 309.3,50.6 323.8,50.6 331.9,42.5 331.9,12.7 324,4.7 "
         id="polygon22"
         style="stroke:#ffffff;stroke-width:16;stroke-linecap:round;stroke-linejoin:round;stroke-miterlimit:4;stroke-dasharray:none" />
      <polyline
         class="cls-4"
         points="348.8 4.7 348.8 12.6 363.8 26.7 379.1 12.2 379.1 4"
         id="polyline24"
         style="stroke:#ffffff;stroke-width:16;stroke-linecap:round;stroke-linejoin:round;stroke-miterlimit:4;stroke-dasharray:none" />
      <line
         class="cls-4"
         x1="363.89999"
         y1="50.599998"
         x2="363.79999"
         y2="26.700001"
         id="line26"
         style="stroke:#ffffff;stroke-width:16;stroke-linecap:round;stroke-linejoin:round;stroke-miterlimit:4;stroke-dasharray:none" />
    </g>
    <g
       id="g904"
       style="stroke:#ffffff;stroke-width:8;stroke-linecap:round;stroke-linejoin:round;stroke-miterlimit:4;stroke-dasharray:none">
      <polygon
         class="cls-3"
         points="0,20.3 0,35.7 1.6,35.7 1.6,37.4 51.5,37.4 51.5,35.7 53,35.7 53,20.3 51.5,20.3 51.5,18.6 1.6,18.6 1.6,20.3 "
         id="polygon30"
         style="stroke:#ffffff;stroke-width:8;stroke-linecap:round;stroke-linejoin:round;stroke-miterlimit:4;stroke-dasharray:none" />
      <polygon
         class="cls-3"
         points="18.9,54.5 34.2,54.5 34.2,52.9 35.9,52.9 35.9,3.1 34.2,3.1 34.2,1.5 18.9,1.5 18.9,3.1 17.1,3.1 17.1,52.9 18.9,52.9 "
         id="polygon32"
         style="stroke:#ffffff;stroke-width:8;stroke-linecap:round;stroke-linejoin:round;stroke-miterlimit:4;stroke-dasharray:none" />
      <g
         id="g38"
         style="stroke:#ffffff;stroke-width:8;stroke-linecap:round;stroke-linejoin:round;stroke-miterlimit:4;stroke-dasharray:none">
        <polygon
           class="cls-3"
           points="19.7,17.6 19.7,5.6 21.4,5.6 21.4,4 31.6,4 31.6,5.6 33.3,5.6 33.3,17.6 31.6,17.6 31.6,19.3 29.9,19.3 29.9,21 28.3,21 28.3,22.7 25.1,22.7 25.1,21 23.3,21 23.3,19.3 21.4,19.3 21.4,17.6 "
           id="polygon34"
           style="stroke:#ffffff;stroke-width:8;stroke-linecap:round;stroke-linejoin:round;stroke-miterlimit:4;stroke-dasharray:none" />
        <path
           class="cls-2"
           d="m 30.6,5 v 1.6 h 1.7 v 9.9 h -1.7 v 1.7 H 29 v 1.7 h -1.7 v 1.7 H 26.2 V 19.9 H 24.3 V 18.2 H 22.4 V 16.5 H 20.7 V 6.6 h 1.7 V 5 h 8.1 m 2,-2 H 20.4 v 1.6 h -1.7 v 13.9 h 1.7 v 1.7 h 1.9 v 1.7 h 1.9 v 1.7 h 1.7 v 1.7 h 1.7 v -1.7 h 1.7 V 21.9 H 31 v -1.7 h 1.6 v -1.7 h 1.7 V 4.6 H 32.6 V 3 3 Z"
           id="path36"
           style="stroke:#ffffff;stroke-width:8;stroke-linecap:round;stroke-linejoin:round;stroke-miterlimit:4;stroke-dasharray:none" />
      </g>
      <g
         id="g44"
         style="stroke:#ffffff;stroke-width:8;stroke-linecap:round;stroke-linejoin:round;stroke-miterlimit:4;stroke-dasharray:none">
        <polygon
           class="cls-3"
           points="19.7,50.3 19.7,38.3 21.4,38.3 21.4,36.6 23.3,36.6 23.3,34.9 25.1,34.9 25.1,33.2 28.3,33.2 28.3,34.9 29.9,34.9 29.9,36.6 31.6,36.6 31.6,38.3 33.3,38.3 33.3,50.3 31.6,50.3 31.6,51.9 21.4,51.9 21.4,50.3 "
           id="polygon40"
           style="stroke:#ffffff;stroke-width:8;stroke-linecap:round;stroke-linejoin:round;stroke-miterlimit:4;stroke-dasharray:none" />
        <path
           class="cls-2"
           d="m 27.3,34.2 v 1.7 H 29 v 1.7 h 1.6 v 1.7 h 1.7 v 9.9 h -1.7 v 1.6 h -8.1 v -1.6 h -1.7 v -9.9 h 1.7 v -1.7 h 1.9 v -1.7 h 1.9 v -1.7 h 1.1 m 0.3,-3.7 H 26 v 1.7 h -1.7 v 1.7 h -1.9 v 1.7 h -1.9 v 1.7 h -1.7 v 13.9 h 1.7 v 1.6 h 12.1 v -1.6 h 1.7 V 37.3 H 32.6 V 35.6 H 31 v -1.7 h -1.7 v -1.7 h -1.7 v -1.7 0 z"
           id="path42"
           style="stroke:#ffffff;stroke-width:8;stroke-linecap:round;stroke-linejoin:round;stroke-miterlimit:4;stroke-dasharray:none" />
      </g>
      <g
         id="g50"
         style="stroke:#ffffff;stroke-width:8;stroke-linecap:round;stroke-linejoin:round;stroke-miterlimit:4;stroke-dasharray:none">
        <polygon
           class="cls-3"
           points="2.5,33 2.5,22.9 4.2,22.9 4.2,21.1 16.1,21.1 16.1,22.9 17.8,22.9 17.8,24.7 19.6,24.7 19.6,26.6 21.2,26.6 21.2,29.7 19.6,29.7 19.6,31.4 17.9,31.4 17.9,33 16.1,33 16.1,34.7 4.2,34.7 4.2,33 "
           id="polygon46"
           style="stroke:#ffffff;stroke-width:8;stroke-linecap:round;stroke-linejoin:round;stroke-miterlimit:4;stroke-dasharray:none" />
        <path
           class="cls-2"
           d="m 15.1,22.1 v 1.7 h 1.7 v 1.9 h 1.7 v 1.9 h 1.7 v 1.1 h -1.7 v 1.7 H 16.8 V 32 h -1.7 v 1.7 H 5.2 V 32 H 3.6 v -8.1 h 1.6 v -1.7 h 9.9 m 2,-2 H 3.2 v 1.7 H 1.5 V 34 h 1.6 v 1.7 H 17 V 34 h 1.7 v -1.6 h 1.7 v -1.7 h 1.7 V 29 h 1.7 V 27.3 H 22.1 V 25.6 H 20.4 V 23.7 H 18.7 V 21.8 H 17 v -1.7 0 z"
           id="path48"
           style="stroke:#ffffff;stroke-width:8;stroke-linecap:round;stroke-linejoin:round;stroke-miterlimit:4;stroke-dasharray:none" />
      </g>
      <g
         id="g56"
         style="stroke:#ffffff;stroke-width:8;stroke-linecap:round;stroke-linejoin:round;stroke-miterlimit:4;stroke-dasharray:none">
        <polygon
           class="cls-3"
           points="33.4,31.4 33.4,29.7 31.8,29.7 31.8,26.6 33.4,26.6 33.4,24.7 35.2,24.7 35.2,22.9 36.9,22.9 36.9,21.1 48.8,21.1 48.8,22.9 50.5,22.9 50.5,33 48.8,33 48.8,34.7 36.9,34.7 36.9,33 35.1,33 35.1,31.4 "
           id="polygon52"
           style="stroke:#ffffff;stroke-width:8;stroke-linecap:round;stroke-linejoin:round;stroke-miterlimit:4;stroke-dasharray:none" />
        <path
           class="cls-2"
           d="m 47.8,22.1 v 1.7 h 1.6 v 8.1 h -1.6 v 1.7 h -9.9 v -1.7 h -1.7 v -1.6 h -1.7 v -1.7 h -1.7 v -1.1 h 1.7 v -1.9 h 1.7 v -1.9 h 1.7 V 22 h 9.9 m 2,-2 H 35.9 v 1.7 h -1.7 v 1.9 h -1.7 v 1.9 h -1.7 v 1.7 h -1.7 v 1.7 h 1.7 v 1.7 h 1.7 v 1.7 h 1.7 v 1.6 h 1.7 v 1.7 h 13.9 v -1.7 h 1.6 V 21.8 h -1.6 v -1.7 0 z"
           id="path54"
           style="stroke:#ffffff;stroke-width:8;stroke-linecap:round;stroke-linejoin:round;stroke-miterlimit:4;stroke-dasharray:none" />
      </g>
      <g
         id="reflets"
         style="stroke:#ffffff;stroke-width:8;stroke-linecap:round;stroke-linejoin:round;stroke-miterlimit:4;stroke-dasharray:none">
        <rect
           class="cls-1"
           x="15"
           y="26.200001"
           width="1.7"
           height="1.7"
           id="rect58"
           style="stroke:#ffffff;stroke-width:8;stroke-linecap:round;stroke-linejoin:round;stroke-miterlimit:4;stroke-dasharray:none" />
        <rect
           class="cls-1"
           x="5"
           y="24.5"
           width="10"
           height="1.7"
           id="rect60"
           style="stroke:#ffffff;stroke-width:8;stroke-linecap:round;stroke-linejoin:round;stroke-miterlimit:4;stroke-dasharray:none" />
        <rect
           class="cls-1"
           x="39.299999"
           y="25.1"
           width="6.5"
           height="1.7"
           transform="rotate(180,42.55,26)"
           id="rect62"
           style="stroke:#ffffff;stroke-width:8;stroke-linecap:round;stroke-linejoin:round;stroke-miterlimit:4;stroke-dasharray:none" />
        <rect
           class="cls-1"
           x="45.900002"
           y="26.9"
           width="1.6"
           height="1.7"
           transform="rotate(180,46.7,27.8)"
           id="rect64"
           style="stroke:#ffffff;stroke-width:8;stroke-linecap:round;stroke-linejoin:round;stroke-miterlimit:4;stroke-dasharray:none" />
      </g>
    </g>
    <g
       id="g1004">
      <g
         id="g962">
        <polyline
           class="cls-4"
           points="64.3 50.6 64.3 20.8 79.8 5.4 95.1 21.5 95.1 50.6"
           id="polyline940" />
        <polyline
           class="cls-4"
           points="111.5 50.6 111.5 5.4 134.5 5.4 141.4 12.6 141.4 28.7 133.9 36.3 112.7 36.3"
           id="polyline942" />
        <polygon
           class="cls-4"
           points="181.9,5.4 189.2,12.6 189.2,43.5 182.4,50.6 159.6,50.6 159.6,5.4 "
           id="polygon944" />
        <polyline
           class="cls-4"
           points="206.6 4.7 206.6 43.8 214.4 50.6 229 50.6 237.1 43 237.1 4.7"
           id="polyline946" />
        <polygon
           class="cls-4"
           points="277.1,4.7 284.1,11.6 284.1,18.6 276.2,28 284.1,34.8 284.1,43.7 277.1,50.6 254.7,50.6 254.7,4.7 "
           id="polygon948" />
        <line
           class="cls-4"
           x1="255.89999"
           y1="27.6"
           x2="276.20001"
           y2="28"
           id="line950" />
        <line
           class="cls-4"
           x1="142.89999"
           y1="50.599998"
           x2="128.89999"
           y2="36.299999"
           id="line952" />
        <line
           class="cls-4"
           x1="66.5"
           y1="28"
           x2="93"
           y2="28"
           id="line954" />
        <polygon
           class="cls-4"
           points="331.9,12.7 324,4.7 309.5,4.7 301.4,11.7 301.4,42.7 309.3,50.6 323.8,50.6 331.9,42.5 "
           id="polygon956" />
        <polyline
           class="cls-4"
           points="348.8 4.7 348.8 12.6 363.8 26.7 379.1 12.2 379.1 4"
           id="polyline958" />
        <line
           class="cls-4"
           x1="363.89999"
           y1="50.599998"
           x2="363.79999"
           y2="26.700001"
           id="line960" />
      </g>
      <g
         id="g1002">
        <polygon
           class="cls-3"
           points="53,20.3 51.5,20.3 51.5,18.6 1.6,18.6 1.6,20.3 0,20.3 0,35.7 1.6,35.7 1.6,37.4 51.5,37.4 51.5,35.7 53,35.7 "
           id="polygon964" />
        <polygon
           class="cls-3"
           points="18.9,1.5 18.9,3.1 17.1,3.1 17.1,52.9 18.9,52.9 18.9,54.5 34.2,54.5 34.2,52.9 35.9,52.9 35.9,3.1 34.2,3.1 34.2,1.5 "
           id="polygon966" />
        <g
           id="g972">
          <polygon
             class="cls-3"
             points="33.3,17.6 31.6,17.6 31.6,19.3 29.9,19.3 29.9,21 28.3,21 28.3,22.7 25.1,22.7 25.1,21 23.3,21 23.3,19.3 21.4,19.3 21.4,17.6 19.7,17.6 19.7,5.6 21.4,5.6 21.4,4 31.6,4 31.6,5.6 33.3,5.6 "
             id="polygon968" />
          <path
             class="cls-2"
             d="m 30.6,5 v 1.6 h 1.7 v 9.9 h -1.7 v 1.7 H 29 v 1.7 h -1.7 v 1.7 H 26.2 V 19.9 H 24.3 V 18.2 H 22.4 V 16.5 H 20.7 V 6.6 h 1.7 V 5 h 8.1 m 2,-2 H 20.4 v 1.6 h -1.7 v 13.9 h 1.7 v 1.7 h 1.9 v 1.7 h 1.9 v 1.7 h 1.7 v 1.7 h 1.7 v -1.7 h 1.7 V 21.9 H 31 v -1.7 h 1.6 v -1.7 h 1.7 V 4.6 H 32.6 V 3 3 Z"
             id="path970" />
        </g>
        <g
           id="g978">
          <polygon
             class="cls-3"
             points="25.1,33.2 28.3,33.2 28.3,34.9 29.9,34.9 29.9,36.6 31.6,36.6 31.6,38.3 33.3,38.3 33.3,50.3 31.6,50.3 31.6,51.9 21.4,51.9 21.4,50.3 19.7,50.3 19.7,38.3 21.4,38.3 21.4,36.6 23.3,36.6 23.3,34.9 25.1,34.9 "
             id="polygon974" />
          <path
             class="cls-2"
             d="m 27.3,34.2 v 1.7 H 29 v 1.7 h 1.6 v 1.7 h 1.7 v 9.9 h -1.7 v 1.6 h -8.1 v -1.6 h -1.7 v -9.9 h 1.7 v -1.7 h 1.9 v -1.7 h 1.9 v -1.7 h 1.1 m 0.3,-3.7 H 26 v 1.7 h -1.7 v 1.7 h -1.9 v 1.7 h -1.9 v 1.7 h -1.7 v 13.9 h 1.7 v 1.6 h 12.1 v -1.6 h 1.7 V 37.3 H 32.6 V 35.6 H 31 v -1.7 h -1.7 v -1.7 h -1.7 v -1.7 0 z"
             id="path976" />
        </g>
        <g
           id="g984">
          <polygon
             class="cls-3"
             points="17.8,24.7 19.6,24.7 19.6,26.6 21.2,26.6 21.2,29.7 19.6,29.7 19.6,31.4 17.9,31.4 17.9,33 16.1,33 16.1,34.7 4.2,34.7 4.2,33 2.5,33 2.5,22.9 4.2,22.9 4.2,21.1 16.1,21.1 16.1,22.9 17.8,22.9 "
             id="polygon980" />
          <path
             class="cls-2"
             d="m 15.1,22.1 v 1.7 h 1.7 v 1.9 h 1.7 v 1.9 h 1.7 v 1.1 h -1.7 v 1.7 H 16.8 V 32 h -1.7 v 1.7 H 5.2 V 32 H 3.6 v -8.1 h 1.6 v -1.7 h 9.9 m 2,-2 H 3.2 v 1.7 H 1.5 V 34 h 1.6 v 1.7 H 17 V 34 h 1.7 v -1.6 h 1.7 v -1.7 h 1.7 V 29 h 1.7 V 27.3 H 22.1 V 25.6 H 20.4 V 23.7 H 18.7 V 21.8 H 17 v -1.7 0 z"
             id="path982" />
        </g>
        <g
           id="g990">
          <polygon
             class="cls-3"
             points="33.4,24.7 35.2,24.7 35.2,22.9 36.9,22.9 36.9,21.1 48.8,21.1 48.8,22.9 50.5,22.9 50.5,33 48.8,33 48.8,34.7 36.9,34.7 36.9,33 35.1,33 35.1,31.4 33.4,31.4 33.4,29.7 31.8,29.7 31.8,26.6 33.4,26.6 "
             id="polygon986" />
          <path
             class="cls-2"
             d="m 47.8,22.1 v 1.7 h 1.6 v 8.1 h -1.6 v 1.7 h -9.9 v -1.7 h -1.7 v -1.6 h -1.7 v -1.7 h -1.7 v -1.1 h 1.7 v -1.9 h 1.7 v -1.9 h 1.7 V 22 h 9.9 m 2,-2 H 35.9 v 1.7 h -1.7 v 1.9 h -1.7 v 1.9 h -1.7 v 1.7 h -1.7 v 1.7 h 1.7 v 1.7 h 1.7 v 1.7 h 1.7 v 1.6 h 1.7 v 1.7 h 13.9 v -1.7 h 1.6 V 21.8 h -1.6 v -1.7 0 z"
             id="path988" />
        </g>
        <g
           id="g1000">
          <rect
             class="cls-1"
             x="15"
             y="26.200001"
             width="1.7"
             height="1.7"
             id="rect992" />
          <rect
             class="cls-1"
             x="5"
             y="24.5"
             width="10"
             height="1.7"
             id="rect994" />
          <rect
             class="cls-1"
             x="39.299999"
             y="25.1"
             width="6.5"
             height="1.7"
             transform="rotate(180,42.55,26)"
             id="rect996" />
          <rect
             class="cls-1"
             x="45.900002"
             y="26.9"
             width="1.6"
             height="1.7"
             transform="rotate(180,46.7,27.8)"
             id="rect998" />
        </g>
      </g>
    </g>
  </g>
</svg>
