<?xml version="1.0" encoding="UTF-8" standalone="no"?>
<svg
   width="495.09399"
   height="64.075699"
   viewBox="0 0 495.09399 64.075699"
   fill="none"
   version="1.1"
   id="svg18"
   sodipodi:docname="auto-tate.svg"
   inkscape:version="1.1 (c68e22c387, 2021-05-23)"
   xmlns:inkscape="http://www.inkscape.org/namespaces/inkscape"
   xmlns:sodipodi="http://sodipodi.sourceforge.net/DTD/sodipodi-0.dtd"
   xmlns="http://www.w3.org/2000/svg"
   xmlns:svg="http://www.w3.org/2000/svg">
  <defs
     id="defs22" />
  <sodipodi:namedview
     id="namedview20"
     pagecolor="#ffffff"
     bordercolor="#666666"
     borderopacity="1.0"
     inkscape:pageshadow="2"
     inkscape:pageopacity="0.0"
     inkscape:pagecheckerboard="true"
     showgrid="false"
     fit-margin-top="0"
     fit-margin-left="0"
     fit-margin-right="0"
     fit-margin-bottom="0"
     inkscape:zoom="1.2652891"
     inkscape:cx="288.86678"
     inkscape:cy="18.177663"
     inkscape:window-width="1920"
     inkscape:window-height="1138"
     inkscape:window-x="-8"
     inkscape:window-y="-8"
     inkscape:window-maximized="1"
     inkscape:current-layer="svg18" />
  <path
     d="M 18.861,19.3584 H 37.952 V 59.5757 H 18.861 Z M 4.5,4.5 H 52.313 V 16.4946 H 4.5 Z M 88.089,53.5576 H 70.076 l 3.819,-10.9155 h 9.961 L 69.122,4.5 H 87.01 l 21.956,55.0757 H 90.413 Z m -22.91,6.0181 H 47.457 L 67.13,6.9903 75.264,28.8628 Z m 55.117,-40.2173 h 19.092 V 59.5757 H 120.296 Z M 105.936,4.5 h 47.812 v 11.9946 h -47.812 z m 73.171,32.4561 V 59.5757 H 160.762 V 4.5 h 18.345 v 21.8311 h 17.556 v 10.625 z m 2.905,-21.7896 V 4.5 h 28.68 v 15.9375 h -17.266 v -5.271 z m 0,44.4092 V 48.5772 h 10.335 v -5.5201 h 18.345 V 59.5757 Z M 241.571,4.5 h 19.506 l 14.776,24.4873 11.621,-19.9219 v 27.7247 l -13.24,22.7856 z m 48.601,55.0757 V 4.5 h 18.344 v 55.0757 z m -48.643,0 V 9.605 l 17.141,28.7622 v 21.2085 z m 93.799,-11.2061 h 6.889 V 59.5757 H 328.106 L 316.942,48.5772 V 15.4986 L 328.106,4.5 h 14.111 v 11.1646 h -6.889 z m 16.809,-32.705 h -7.014 V 4.5 h 14.236 l 11.123,10.9986 V 48.5772 L 359.359,59.5757 H 345.123 V 48.3696 h 7.014 z M 400.24,59.5757 V 48.5772 h 13.613 V 15.4986 H 400.24 V 4.5 h 20.959 l 11.04,10.9986 v 33.0786 l -11.04,10.9985 z M 378.99,4.5 h 18.345 V 59.5757 H 378.99 Z m 80.019,32.4561 V 59.5757 H 440.665 V 4.5 h 18.344 v 21.8311 h 17.557 v 10.625 z m 2.906,-21.7896 V 4.5 h 28.679 v 15.9375 h -17.266 v -5.271 z m 0,44.4092 V 48.5772 h 10.334 v -5.5201 h 18.345 v 16.5186 z"
     fill="#000000"
     id="path2"
     style="stroke:#ffffff;stroke-width:9;stroke-linecap:round;stroke-linejoin:round;stroke-miterlimit:4;stroke-dasharray:none" />
  <path
     d="M 18.861,19.3584 H 37.952 V 59.575704 H 18.861 Z M 4.5,4.5 H 52.313 V 16.4946 H 4.5 Z M 88.089,53.557604 H 70.076 L 73.895,42.6421 h 9.961 L 69.122,4.5 H 87.01 l 21.956,55.075704 H 90.413 Z m -22.91,6.0181 H 47.457 L 67.13,6.9903 75.264,28.8628 Z M 120.296,19.3584 h 19.092 V 59.575704 H 120.296 Z M 105.936,4.5 h 47.812 v 11.9946 h -47.812 z m 73.171,32.4561 V 59.575704 H 160.762 V 4.5 h 18.345 v 21.8311 h 17.556 v 10.625 z m 2.905,-21.7896 V 4.5 h 28.68 v 15.9375 h -17.266 v -5.271 z m 0,44.409204 v -10.9985 h 10.335 v -5.5201 h 18.345 v 16.5186 z M 241.571,4.5 h 19.506 l 14.776,24.4873 11.621,-19.9219 v 27.7247 l -13.24,22.785604 z m 48.601,55.075704 V 4.5 h 18.344 v 55.075704 z m -48.643,0 V 9.605 l 17.141,28.7622 v 21.208504 z m 93.799,-11.2061 h 6.889 v 11.2061 h -14.111 l -11.164,-10.9985 V 15.4986 L 328.106,4.5 h 14.111 v 11.1646 h -6.889 z M 352.137,15.6646 h -7.014 V 4.5 h 14.236 l 11.123,10.9986 v 33.078604 l -11.123,10.9985 h -14.236 v -11.2061 h 7.014 z m 48.103,43.911104 v -10.9985 h 13.613 V 15.4986 H 400.24 V 4.5 h 20.959 l 11.04,10.9986 v 33.078604 l -11.04,10.9985 z M 378.99,4.5 h 18.345 V 59.575704 H 378.99 Z m 80.019,32.4561 V 59.575704 H 440.665 V 4.5 h 18.344 v 21.8311 h 17.557 v 10.625 z m 2.906,-21.7896 V 4.5 h 28.679 v 15.9375 h -17.266 v -5.271 z m 0,44.409204 v -10.9985 h 10.334 v -5.5201 h 18.345 v 16.5186 z"
     fill="#000000"
     id="path999" />
</svg>
