<?xml version="1.0" encoding="UTF-8" standalone="no"?>
<svg
   viewBox="0 0 133.33608 41.842481"
   version="1.1"
   id="svg22"
   sodipodi:docname="logo ok.svg"
   inkscape:version="1.1 (c68e22c387, 2021-05-23)"
   width="133.33607"
   height="41.84248"
   xmlns:inkscape="http://www.inkscape.org/namespaces/inkscape"
   xmlns:sodipodi="http://sodipodi.sourceforge.net/DTD/sodipodi-0.dtd"
   xmlns="http://www.w3.org/2000/svg"
   xmlns:svg="http://www.w3.org/2000/svg">
  <defs
     id="defs26" />
  <sodipodi:namedview
     id="namedview24"
     pagecolor="#ffffff"
     bordercolor="#666666"
     borderopacity="1.0"
     inkscape:pageshadow="2"
     inkscape:pageopacity="0.0"
     inkscape:pagecheckerboard="true"
     showgrid="false"
     inkscape:zoom="1.4089072"
     inkscape:cx="219.6738"
     inkscape:cy="69.557456"
     inkscape:window-width="1920"
     inkscape:window-height="1138"
     inkscape:window-x="-8"
     inkscape:window-y="-8"
     inkscape:window-maximized="1"
     inkscape:current-layer="svg22"
     fit-margin-top="0"
     fit-margin-left="0"
     fit-margin-right="0"
     fit-margin-bottom="0"
     inkscape:snap-global="false" />
  <g
     id="g838"
     transform="scale(0.33128099)">
    <rect
       style="opacity:1;fill:#ffffff;fill-rule:evenodd;stroke:#ffffff;stroke-width:23.0166;stroke-linecap:round;stroke-linejoin:round;stroke-miterlimit:4;stroke-dasharray:none;paint-order:stroke fill markers"
       id="rect1192"
       width="161.61844"
       height="19.132107"
       x="213.39044"
       y="62.919205"
       inkscape:export-filename="C:\Users\BUCH\Desktop\Retrogaming\Recalbox\travail thèmes\BlueBox\macintosh\path6.png"
       inkscape:export-xdpi="357.77612"
       inkscape:export-ydpi="357.77612" />
    <path
       id="path2"
       style="stroke:#ffffff;stroke-width:15;stroke-linecap:round;stroke-linejoin:round;stroke-miterlimit:4;stroke-dasharray:none;paint-order:stroke fill markers"
       d="m 366.78711,31.498047 c -0.201,0 -9.97266,5.293297 -9.97266,5.904297 0,1.426 4.98633,7.8e-5 4.98633,4.580078 v 44.482422 c 0,5.699 -4.98633,4.375219 -4.98633,5.699218 0,0.508001 0.50791,0.8125 1.62891,0.8125 h 12.31641 c 1.833,0 2.54492,-0.203578 2.54492,-1.017578 0,-1.322 -5.36914,-9.3e-5 -5.36914,-5.496093 V 64.271484 c 0,-5.599 3.73907,-9.769531 8.83007,-9.769531 4.78301,0 7.63477,3.560531 7.63477,9.769531 v 23.208985 c 0,4.58 -4.58203,3.054078 -4.58203,4.580078 0,0.713 0.30586,0.916015 1.63086,0.916015 h 9.97266 c 2.647,0 3.56445,-0.30514 3.56445,-1.11914 0,-1.121 -4.48047,4.7e-5 -4.48047,-4.376953 V 64.373047 c 0,-8.245 -3.66131,-13.537109 -11.19531,-13.537109 -4.069,0 -7.30005,1.728453 -11.37305,5.189453 V 37.296875 c 0,-4.375 -0.0264,-5.801828 -1.15039,-5.798828 z M 245.5625,35.365234 c -1.832,0 -3.45998,2.13736 -3.45898,5.19336 0,2.85 1.72854,4.68164 3.56054,4.68164 2.137,0 3.35938,-1.832156 3.35938,-4.785156 0,-2.953 -1.42594,-5.089844 -3.46094,-5.089844 z M 166.36914,35.660156 153.9375,79.744141 141.06445,35.871094 h -10.89257 c -1.323,0 -1.9336,0.305015 -1.9336,0.916015 0,2.037 6.74805,0.254297 6.74805,4.529297 l -1.32422,44.277344 c -0.204,6.412 -6.44336,4.428281 -6.44336,6.363281 0,0.612 0.71267,1.017578 2.13867,1.017578 h 10.48242 c 1.73,0 2.64649,-0.20214 2.64649,-1.11914 0,-1.321 -6.41211,2.03e-4 -6.41211,-6.716797 l 1.2207,-40.001953 12.93164,44.36914 c 0.508,2.138 0.71052,3.15625 1.72852,3.15625 0.815,0 0.9159,-0.303172 1.6289,-2.951171 l 12.6211,-44.582032 1.6289,40.81836 v 1.220703 c 0,4.886 -5.69921,3.054719 -5.69921,4.886719 0,0.712999 0.60959,0.916015 1.93359,0.916015 h 13.4375 c 1.324,0 1.93359,-0.203016 1.93359,-0.916015 0,-1.221001 -2.54483,-0.610032 -4.17383,-1.832032 -0.71399,-0.509 -1.12065,-2.136515 -1.22265,-4.478515 l -1.83203,-44.074219 c 0.101,-4.682 5.1914,-2.849641 5.1914,-4.681641 0,-0.814 -0.71072,-1.11914 -2.13672,-1.11914 z m 130.59766,4.488282 c -0.71,0 -2.95208,4.58 -4.58008,7.125 -1.935,2.951 -5.0918,6.005874 -5.0918,6.921874 0,0.814001 0.81628,1.222657 2.23828,1.222657 h 1.93555 v 28.601562 c 0,6.412 2.23819,9.873047 6.61719,9.873047 3.361,0 6.61773,-2.340797 8.55273,-6.716797 l 0.0996,-0.304687 c 3.665,4.174 7.02528,6.921875 12.11328,6.921875 8.347,0 16.18555,-9.771688 16.18555,-21.679688 -0.002,-12.626 -7.7387,-21.785156 -16.5957,-21.785156 -8.549,0 -16.1836,8.650922 -16.1836,21.169922 0,3.869 0.81344,7.839922 2.64844,12.419922 l 0.20117,0.507812 c -1.018,2.951 -2.64469,4.884766 -4.67969,4.884766 -2.038,0 -2.95117,-2.036969 -2.95117,-5.292969 V 55.417969 h 5.4961 c 1.73,0 2.54297,-0.406469 2.54296,-1.730469 0,-1.426 -1.01796,-1.730469 -2.54296,-1.730469 h -5.4961 v -10.28125 c 0,-0.814 -0.10176,-1.527343 -0.50976,-1.527343 z m -35.32032,9.464843 c -0.205,0 -9.56836,6.210313 -9.56836,6.820313 0,0.611 0.71291,0.916015 1.62891,0.916015 2.748,0 3.15625,0.0016 3.15625,3.767579 V 85.75 c 0,3.359 -0.20295,4.884766 -4.37695,4.884766 -3.461,0 -4.07227,-1.322641 -4.07227,-4.681641 l 0.10156,-33.488281 c 10e-6,-1.424 -0.40657,-2.035156 -1.01757,-2.035156 -0.203,-10e-7 -9.4668,5.191734 -9.4668,5.802734 0,1.629 4.58008,-1.56e-4 4.58008,5.089844 v 24.53125 c 0,2.34 -4.6e-4,3.460437 -0.81445,4.273437 -1.22101,1.119 -3.76563,0.510031 -3.76563,1.832031 0,0.815 0.91648,1.017578 2.64648,1.017578 h 25.85352 c 1.527,10e-7 2.34375,-0.20214 2.34375,-1.11914 0,-1.322 -3.05603,-0.610828 -4.58203,-1.423828 -1.221,-0.611 -1.52539,-2.138078 -1.52539,-4.580078 l 0.004,-23.308594 c 0,-4.683 3.96533,-8.652344 9.36133,-8.652344 4.173,0 7.22657,3.154266 7.22657,8.447266 v 24.83789 c 0,4.682 -4.68165,3.663641 -4.68165,4.681641 0,0.916 0.91541,1.119141 2.44141,1.119141 h 11.60352 c 1.221,0 1.83203,-0.304579 1.83203,-1.017578 0,-1.527001 -2.84988,-0.611547 -4.17188,-1.935547 -1.021,-1.017 -1.12109,-2.338641 -1.12109,-4.681641 V 62.441406 c 0,-7.533 -3.86738,-12.011718 -10.48438,-12.011718 -4.479,-10e-7 -7.5334,1.829906 -12.3164,6.003906 l -0.20313,-4.070313 c 0,-1.935 -3.3e-4,-2.749 -0.61133,-2.75 z m 87.43555,0.814453 c -7.434,0 -13.0293,4.784141 -13.0293,10.994141 0,4.07 2.1351,7.122844 5.4961,9.464844 l 7.63476,5.291015 c 2.648,1.833 4.17383,4.175954 4.17383,7.126954 0,4.682999 -3.36039,8.24414 -7.02539,8.24414 -7.837,0 -7.22622,-11.908203 -10.07422,-11.908203 -1.121,0 -1.52929,1.527266 -1.52929,4.072266 V 90.125 c 0,2.138 3.15525,4.070312 10.28125,4.070312 8.042,10e-7 13.63867,-6.105781 13.63867,-12.925781 0,-4.582 -1.82991,-7.8375 -6.00391,-10.6875 l -7.22656,-4.886719 c -2.952,-1.934999 -4.07227,-4.171984 -4.07227,-6.208984 0,-4.071 2.84955,-6.716797 6.31055,-6.716797 7.634,0 6.10716,9.464844 9.16016,9.464844 0.813,0 1.12109,-0.507391 1.12109,-1.525391 l -0.10352,-8.142578 c -4.071,-1.731 -5.90395,-2.137672 -8.75195,-2.138672 z m -123.43164,0.304688 c -9.569,0 -17.60937,8.348328 -17.60937,21.986328 0,13.031 7.02214,22.087891 15.36914,22.087891 5.598,0 12.41796,-5.395078 12.41796,-11.705079 10e-6,-0.815 -0.30457,-1.425781 -1.01757,-1.425781 -1.731,0 -1.62924,8.753907 -9.36524,8.753907 -6.514,-10e-7 -11.09375,-6.715875 -11.09375,-18.421876 0,-11.196 4.88705,-18.730468 9.87305,-18.730468 6.108,0 5.59816,10.382812 9.16016,10.382812 1.424,0 1.83203,-1.221172 1.83203,-2.951172 v -6.515625 c -2.239,-2.239 -5.19241,-3.459937 -9.56641,-3.460937 z m -29.92969,0.308594 c -6.615,0 -17.60937,5.698984 -17.60937,13.333984 0,1.934 0.81359,2.542969 1.93359,2.542969 7.431,0 4.68211,-13.742188 13.53711,-13.742188 2.238,0 3.05469,1.118938 3.05469,3.460938 v 10.585937 l -8.95703,6.716797 c -6.717,5.091 -9.36524,8.450172 -9.36524,12.826172 0,3.665 3.35888,7.632813 6.92188,7.632813 3.482,0.016 6.98464,-2.124001 11.80664,-7.125 0.916,4.579999 2.54573,7.125 5.80273,7.125 2.443,0 7.42969,-3.663704 7.42969,-8.345704 0.002,-0.608 -0.3025,-1.016625 -0.8125,-1.015625 -1.73,0 -1.62883,4.580078 -4.17383,4.580079 -1.629,0 -2.34179,-1.526188 -2.34179,-3.867188 V 59.181641 c 0,-6.109 -1.01657,-8.140625 -7.22657,-8.140625 z m 122.31641,1.93164 c 6.006,0 10.48242,6.921219 10.48242,19.949219 -10e-4,11.81 -3.6644,18.628906 -9.56641,18.628906 -5.499,0 -10.18164,-7.634937 -10.18164,-20.460937 0,-11.806 3.25963,-18.117188 9.26563,-18.117188 z m -121.40234,17 0.01,14.251953 c -1.019,1.525 -4.28131,5.798828 -7.94531,5.798829 -2.342,0 -3.96875,-1.831016 -3.96875,-5.291016 0,-4.275 3.5573,-8.958766 11.9043,-14.759766 z"
       inkscape:export-filename="C:\Users\BUCH\Desktop\Retrogaming\Recalbox\travail thèmes\BlueBox\macintosh\path6.png"
       inkscape:export-xdpi="357.77612"
       inkscape:export-ydpi="357.77612" />
    <path
       d="m 13.691846,110.80021 c 6.898,9.755 14.72,15.408 19.117,15.5 9.05,0.202 16.928,-5.916 23.417,-5.751 a 0.608,0.608 0 0 0 0.208,0.012 h 0.16 c 0.067,0.012 0.135,0 0.202,-0.012 6.495,-0.165 14.365,5.959 23.429,5.75 4.403,-0.097 12.219,-5.744 19.117,-15.498 h -85.65"
       fill="#009ddd"
       id="path6"
       inkscape:export-filename="C:\Users\BUCH\Desktop\Retrogaming\Recalbox\travail thèmes\BlueBox\macintosh\path6.png"
       inkscape:export-xdpi="357.77612"
       inkscape:export-ydpi="357.77612" />
    <path
       d="m 5.2958462,95.430213 a 76.918,76.918 0 0 0 8.3899998,15.369997 h 85.65 A 77.076,77.076 0 0 0 107.72585,95.430213 H 5.2968462"
       fill="#944d85"
       id="path8"
       inkscape:export-filename="C:\Users\BUCH\Desktop\Retrogaming\Recalbox\travail thèmes\BlueBox\macintosh\path6.png"
       inkscape:export-xdpi="357.77612"
       inkscape:export-ydpi="357.77612" />
    <path
       d="m 0.68384625,78.526213 c 0.86799995,6.02 2.50599995,11.698 4.61599995,16.904 H 107.72985 c 0.349,-0.862 0.685,-1.736 1.009,-2.622 -6.745,-2.115 -12.292004,-7.383 -15.290004,-14.283 H 0.68484625"
       fill="#c45152"
       id="path10"
       inkscape:export-filename="C:\Users\BUCH\Desktop\Retrogaming\Recalbox\travail thèmes\BlueBox\macintosh\path6.png"
       inkscape:export-xdpi="357.77612"
       inkscape:export-ydpi="357.77612" />
    <path
       d="m 6.1088462,44.716213 c -2.722,4.333 -4.82,9.858 -5.68099995,16.904 H 91.487846 c 1.273,-7.163 5.18,-13.08 10.563004,-16.905 H 6.1088462"
       fill="#f2bd2f"
       id="path12"
       inkscape:export-filename="C:\Users\BUCH\Desktop\Retrogaming\Recalbox\travail thèmes\BlueBox\macintosh\path6.png"
       inkscape:export-xdpi="357.77612"
       inkscape:export-ydpi="357.77612" />
    <path
       d="m 0.42784625,61.620213 c -0.312,2.543 -0.46,5.28 -0.422,8.233 a 67.33,67.33 0 0 0 0.679,8.678 H 93.451846 c -1.547,-3.557 -2.41,-7.536 -2.41,-11.76 0,-1.771 0.153,-3.49 0.446,-5.151 H 0.42784625"
       fill="#e19433"
       id="path14"
       inkscape:export-filename="C:\Users\BUCH\Desktop\Retrogaming\Recalbox\travail thèmes\BlueBox\macintosh\path6.png"
       inkscape:export-xdpi="357.77612"
       inkscape:export-ydpi="357.77612" />
    <path
       d="m 56.592846,34.809213 h -0.16 c -6.188,-0.104 -17.581,-6.368 -25.672,-5.531 -4.03,0.416 -16.897,3.086 -24.6519998,15.438 H 102.04885 a 27.194,27.194 0 0 1 3.022,-1.852 c -7.265004,-11.441 -19.087004,-13.207 -22.805004,-13.592 -8.091,-0.831 -19.484,5.44 -25.673,5.537"
       fill="#76b845"
       id="path16"
       inkscape:export-filename="C:\Users\BUCH\Desktop\Retrogaming\Recalbox\travail thèmes\BlueBox\macintosh\path6.png"
       inkscape:export-xdpi="357.77612"
       inkscape:export-ydpi="357.77612" />
    <path
       d="m 78.473846,0.07721318 c -0.63,-0.532 -12.121,1.58300002 -19.252,9.54000002 -7.125,7.9569998 -6.678,20.0699998 -6.054,20.5959998 0.63,0.532 12.298,-1.302 19.252,-9.54 6.947,-8.233 6.678,-20.07599982 6.054,-20.59599982"
       fill="#76b845"
       id="path18"
       inkscape:export-filename="C:\Users\BUCH\Desktop\Retrogaming\Recalbox\travail thèmes\BlueBox\macintosh\path6.png"
       inkscape:export-xdpi="357.77612"
       inkscape:export-ydpi="357.77612" />
  </g>
</svg>
